#tb 0: 1/1
#media_type 0: video
#codec_id 0: rawvideo
#dimensions 0: 720x480
#sar 0: 0/1
0,          0,          0,        1,   518400, 0xfc2e6c0f
0,          1,          1,        1,   518400, 0xb6fa68ba
0,          2,          2,        1,   518400, 0x0c13a4c9
0,          3,          3,        1,   518400, 0x351e940d
0,          4,          4,        1,   518400, 0x07ad35cb
0,          5,          5,        1,   518400, 0x0c2b1413
0,          6,          6,        1,   518400, 0xf770b86b
0,          7,          7,        1,   518400, 0xb1ec5f47
0,          8,          8,        1,   518400, 0xee591da8
0,          9,          9,        1,   518400, 0x18046c55
0,         10,         10,        1,   518400, 0xcfe7bb62
0,         11,         11,        1,   518400, 0x260e7ecd
0,         12,         12,        1,   518400, 0x3a3034cc
0,         13,         13,        1,   518400, 0xee7800dd
0,         14,         14,        1,   518400, 0xdc4176b4
0,         15,         15,        1,   518400, 0x7bb037db
0,         16,         16,        1,   518400, 0x4d4721d1
0,         17,         17,        1,   518400, 0xbd5cc3b4
0,         18,         18,        1,   518400, 0x678acc34
0,         19,         19,        1,   518400, 0xb3ffba44
0,         20,         20,        1,   518400, 0xda9ebefb
0,         21,         21,        1,   518400, 0xb810bc59
0,         22,         22,        1,   518400, 0xc79fc02d
0,         23,         23,        1,   518400, 0x28d9ad0d
